<svg width="20" height="20" viewBox="0 0 20 20" fill="none" xmlns="http://www.w3.org/2000/svg">
<path d="M14.4524 4.9778C14.3812 4.71098 14.2366 4.42669 14.1297 4.17778C12.8499 1.10222 10.0537 0 7.79587 0C4.77337 0 1.44444 2.02672 1 6.20426V7.05776C1 7.09337 1.01228 7.41334 1.02971 7.57339C1.27886 9.5643 2.84984 11.6802 4.02311 13.6711C5.28538 15.8042 6.59517 17.9025 7.89282 20C8.69298 18.6312 9.49026 17.2444 10.2722 15.9111C10.4853 15.5198 10.7327 15.1288 10.946 14.7553C11.0882 14.5066 11.3599 14.2579 11.484 14.0266C12.7462 11.7156 14.7779 9.38677 14.7779 7.09333V6.15116C14.7779 5.90253 14.4697 5.03141 14.4524 4.9778ZM7.85121 9.26233C6.96274 9.26233 5.99026 8.81808 5.51025 7.5912C5.43873 7.3959 5.4445 7.00451 5.4445 6.96866V6.41755C5.4445 4.8535 6.77252 4.14225 7.92784 4.14225C9.35016 4.14225 10.4502 5.28018 10.4502 6.7025C10.4502 8.12478 9.27353 9.26233 7.85121 9.26233Z" fill="#333333"/>
</svg>
